<svg xmlns="http://www.w3.org/2000/svg" xmlns:xlink="http://www.w3.org/1999/xlink" width="292" height="292" version="1.1" viewBox="0 0 292 292"><title>circ copy</title><desc>Created with Sketch.</desc><g id="Page-1" fill="none" fill-rule="evenodd" stroke="none" stroke-width="1"><g id="circ-copy"><g id="Group-2" transform="translate(1.000000, 1.000000)"><rect id="Rectangle" width="286" height="286" x="1" y="1" fill="#F722B1" rx="64"/><g id="text" transform="translate(174.000000, 205.000000)"><rect id="Rectangle-2" width="68" height="20" x="0" y="0" fill="#FFF06C"/><rect id="Rectangle-2" width="32" height="20" x="0" y="30" fill="#BCFE25"/><rect id="Rectangle-2-Copy" width="12" height="20" x="38" y="30" fill="#FFF"/></g><path id="Rectangle-Copy" fill="#C9C9C9" d="M64,0 L226,0 C261.346224,-6.49299601e-15 290,28.653776 290,64 L290,145 L145,290 L64,290 C28.653776,290 4.32866401e-15,261.346224 0,226 L0,64 C-4.32866401e-15,28.653776 28.653776,6.49299601e-15 64,0 Z"/><g id="Group" fill="#FFF" transform="translate(290.500000, 290.500000) scale(-1, -1) translate(-290.500000, -290.500000) translate(147.000000, 147.000000)"><path id="Combined-Shape" d="M64,0 L223,0 L64,0 Z M287,143.5 L287,223 C287,258.346224 258.346224,287 223,287 L143.5,287 L287,143.5 Z M0,223 L0,64 L0,223 Z"/></g></g><g id="text" fill="#E0E0E0" transform="translate(47.000000, 51.000000)"><rect id="Rectangle-2" width="98" height="20" x="28" y="0"/><rect id="Rectangle-2" width="35" height="20" x="136" y="0"/><rect id="Rectangle-2" width="18" height="20" x="0" y="0"/><rect id="Rectangle-2" width="70" height="20" x="28" y="155"/><rect id="Rectangle-2" width="18" height="20" x="0" y="155"/><rect id="Rectangle-2" width="40" height="20" x="58" y="185"/><rect id="Rectangle-2" width="48" height="20" x="0" y="185"/><rect id="Rectangle-2" width="55" height="20" x="55" y="33"/><rect id="Rectangle-2" width="44" height="20" x="0" y="33"/><rect id="Rectangle-2" width="67" height="20" x="0" y="67"/></g></g></g></svg>